<?xml version="1.0" standalone="no"?>
<!DOCTYPE svg PUBLIC "-//W3C//DTD SVG 20010904//EN"
 "http://www.w3.org/TR/2001/REC-SVG-20010904/DTD/svg10.dtd">
<svg version="1.0" xmlns="http://www.w3.org/2000/svg"
 width="408.000000pt" height="408.000000pt" viewBox="0 0 408.000000 408.000000"
 preserveAspectRatio="xMidYMid meet">

<g transform="translate(0.000000,408.000000) scale(0.100000,-0.100000)"
fill="#000000" stroke="none">
<path d="M1940 3419 c-454 -23 -643 -80 -890 -270 -165 -127 -236 -282 -247
-539 -6 -133 8 -279 32 -338 10 -21 25 -38 45 -45 46 -17 54 -60 46 -262 -3
-93 -13 -219 -20 -280 -31 -239 -38 -305 -43 -425 -7 -153 4 -199 57 -252 32
-33 44 -38 83 -38 79 0 121 55 163 210 10 36 18 66 19 67 1 2 27 -22 57 -52
69 -66 167 -139 231 -171 74 -38 55 -22 -35 31 -119 68 -267 219 -335 340
-124 221 -170 425 -143 642 6 55 15 104 18 110 8 11 84 63 93 63 3 0 4 -31 1
-69 -4 -64 -3 -71 21 -95 14 -14 38 -28 54 -32 15 -3 33 -13 40 -21 9 -12 23
-6 84 41 67 52 97 63 85 30 -3 -8 5 -21 18 -30 l24 -15 -23 -25 c-30 -32 -45
-102 -45 -207 0 -96 20 -146 62 -160 65 -21 118 43 126 153 6 86 -2 129 -33
174 -14 20 -25 38 -25 40 0 2 17 0 38 -4 20 -4 72 -7 115 -5 42 1 77 -1 77 -5
0 -4 -9 -52 -21 -108 -11 -55 -19 -126 -17 -158 3 -49 7 -60 31 -78 40 -30
109 -29 139 2 20 19 23 35 26 112 3 74 -6 195 -20 261 -2 9 5 13 20 12 13 -2
21 0 19 5 -3 4 5 8 18 8 21 2 76 25 200 85 22 10 44 19 48 19 5 0 22 9 38 21
16 11 36 22 45 23 8 1 38 18 67 37 115 78 111 76 99 54 -18 -35 -66 -73 -102
-83 -31 -8 -32 -9 -14 -16 21 -7 21 -7 -7 -36 -54 -53 -28 -110 50 -110 84 0
157 54 149 109 -4 29 -2 32 41 44 l46 13 3 -29 c2 -15 -1 -34 -6 -40 -6 -7
-15 -39 -22 -71 -7 -33 -21 -79 -31 -103 l-19 -44 23 6 c54 17 119 73 169 145
17 25 17 25 13 -30 -2 -30 -7 -105 -10 -165 -5 -113 -35 -319 -59 -412 -8 -29
-12 -53 -9 -53 2 0 -3 -10 -11 -22 -9 -12 -16 -35 -16 -50 0 -16 -4 -28 -10
-28 -5 0 -10 -9 -10 -20 0 -25 17 -26 23 -2 3 12 5 10 6 -7 1 -20 -2 -22 -25
-17 -17 5 -23 3 -19 -4 3 -5 2 -10 -3 -10 -14 0 -31 -46 -26 -71 4 -22 3 -22
-5 -4 l-9 20 -8 -20 c-4 -11 -10 -22 -14 -25 -3 -3 -27 -33 -53 -66 -25 -34
-67 -79 -92 -100 -25 -22 -43 -44 -41 -50 3 -7 -5 -9 -21 -6 -20 4 -24 2 -18
-8 6 -9 4 -11 -5 -5 -7 4 -16 2 -20 -6 -6 -9 -43 -14 -127 -17 -130 -5 -240
10 -383 52 -47 13 -87 23 -88 21 -8 -7 165 -55 252 -70 208 -36 451 -6 658 81
l56 23 40 -39 c35 -35 45 -40 85 -40 34 0 53 6 76 26 35 29 96 148 107 208 5
30 23 57 69 106 34 37 82 93 106 126 58 78 187 338 193 389 l6 40 -14 -45
c-23 -78 -43 -116 -82 -160 -45 -49 -128 -100 -166 -100 -24 0 -26 2 -22 38 3
20 7 62 11 94 5 47 11 61 41 89 67 64 81 148 36 215 -15 21 -35 45 -45 52 -26
18 -27 90 -1 99 9 4 20 11 24 17 4 6 16 5 35 -4 46 -24 49 -24 30 -2 -23 26
-59 35 -90 23 -24 -9 -24 -8 -31 52 -3 33 -2 65 3 70 13 13 73 11 115 -3 47
-15 99 -75 126 -146 17 -44 24 -89 28 -174 5 -97 7 -107 12 -60 3 30 2 84 -3
120 -12 82 -12 96 2 145 18 67 34 390 27 559 -8 181 -14 204 -93 315 -96 135
-173 200 -320 275 -192 96 -325 132 -540 146 -164 11 -189 11 -413 -1z m500
-24 c63 -8 138 -19 167 -26 46 -11 52 -15 57 -43 15 -73 18 -206 7 -272 -17
-94 -60 -517 -54 -527 2 -4 -3 -43 -13 -87 l-17 -79 -36 27 c-92 71 -180 104
-346 131 -71 12 -170 28 -219 36 -132 22 -362 19 -504 -5 -265 -46 -396 -81
-502 -131 -78 -37 -103 -58 -91 -73 5 -6 12 -35 16 -64 6 -48 5 -52 -12 -45
-27 9 -43 24 -37 34 3 5 1 9 -4 9 -14 0 -22 41 -30 144 -18 231 10 408 86 546
33 62 100 130 121 123 12 -4 13 -3 3 4 -10 7 1 20 42 52 31 23 56 38 56 34 0
-4 4 -3 8 4 11 18 124 83 133 77 5 -3 9 -1 9 4 0 5 26 21 58 35 59 26 132 49
132 41 0 -3 8 0 18 5 90 48 702 78 952 46z m676 -297 c85 -92 150 -198 165
-266 25 -118 8 -673 -22 -720 -7 -12 -9 21 -4 118 4 89 0 189 -10 294 -27 283
-81 460 -187 609 -35 49 -2 29 58 -35z m-1296 -1154 c6 -32 10 -110 10 -171
l0 -112 -30 -16 c-37 -19 -57 -18 -95 4 -27 16 -30 22 -32 77 -2 60 10 160 28
226 9 35 24 46 67 54 8 1 16 5 20 8 12 12 23 -12 32 -70z m1221 9 c13 -14 17
-23 9 -19 -8 4 -6 0 4 -8 11 -9 14 -16 8 -16 -7 0 -12 -5 -12 -11 0 -6 6 -9
13 -6 8 3 14 -1 14 -9 0 -7 -5 -11 -10 -7 -5 3 -8 -15 -6 -43 3 -52 -18 -107
-46 -118 -12 -4 -14 0 -10 22 3 15 5 75 5 135 0 59 1 107 3 107 2 0 14 -12 28
-27z m-2126 -455 c-7 -98 5 -218 29 -287 15 -45 16 -45 -34 -31 l-35 10 3 77
c2 43 10 130 18 193 8 63 14 118 14 122 0 4 3 8 6 8 3 0 2 -42 -1 -92z m2225
13 c0 -16 -83 -138 -136 -201 -59 -70 -80 -85 -70 -52 12 39 28 118 28 140 0
12 4 25 9 28 5 3 6 16 3 29 -4 17 -1 24 13 28 10 3 39 10 66 17 26 7 50 16 53
21 5 9 34 1 34 -10z m-224 -227 c-40 -172 -39 -168 -74 -178 -18 -5 -34 -7
-37 -5 -2 3 21 54 51 114 30 61 60 127 66 148 22 73 18 28 -6 -79z m-329 44
c-3 -7 -5 -2 -5 12 0 14 2 19 5 13 2 -7 2 -19 0 -25z m-20 -270 c-3 -8 -6 -5
-6 6 -1 11 2 17 5 13 3 -3 4 -12 1 -19z m-71 -64 c-4 -12 -2 -15 9 -10 8 3 15
1 15 -3 0 -14 -23 -19 -36 -7 -8 7 -8 14 0 23 15 17 19 16 12 -3z m74 6 c0 -5
-8 -10 -17 -10 -15 0 -16 2 -3 10 19 12 20 12 20 0z m-154 -59 c-3 -5 -18 -11
-33 -14 -26 -5 -26 -4 -8 9 21 15 49 19 41 5z"/>
<path d="M2129 3191 c-33 -34 -35 -50 -13 -97 20 -41 70 -62 106 -43 61 31 76
98 32 143 -37 37 -86 35 -125 -3z m101 -11 c0 -5 -4 -10 -10 -10 -5 0 -10 5
-10 10 0 6 5 10 10 10 6 0 10 -4 10 -10z"/>
<path d="M1298 3169 c-34 -35 -41 -60 -29 -99 21 -71 121 -83 157 -19 33 60 3
118 -67 128 -34 5 -48 3 -61 -10z"/>
<path d="M1605 2978 c-27 -12 -113 -54 -190 -94 -148 -76 -182 -106 -156 -138
7 -9 23 -16 36 -16 25 0 59 -32 48 -45 -5 -4 -3 -5 3 -2 7 4 17 0 24 -8 21
-25 99 -55 174 -66 88 -14 277 -6 397 17 98 19 139 46 174 113 9 18 26 36 36
38 15 4 19 13 17 32 -3 29 -37 49 -168 97 -41 16 -78 33 -82 39 -4 5 -8 7 -8
3 0 -4 -39 6 -87 23 -103 34 -150 36 -218 7z m210 -36 c36 -20 78 -44 93 -52
15 -8 55 -32 88 -53 34 -20 67 -37 74 -37 8 0 11 -2 9 -5 -7 -7 -455 -33 -646
-38 -163 -4 -176 -2 -155 29 6 10 173 97 342 179 69 33 105 29 195 -23z m264
-221 c-13 -17 -33 -38 -46 -46 -36 -24 -151 -44 -295 -51 -156 -8 -250 5 -320
43 -68 37 -68 53 1 30 40 -14 95 -21 193 -25 179 -6 295 11 438 67 25 10 47
17 48 15 2 -1 -7 -16 -19 -33z"/>
<path d="M1680 1681 c0 -6 4 -13 10 -16 6 -3 7 1 4 9 -7 18 -14 21 -14 7z"/>
<path d="M2328 1990 c-31 -19 -52 -98 -53 -200 0 -135 22 -180 90 -180 57 0
105 89 105 194 0 55 -29 133 -61 165 -32 32 -52 37 -81 21z"/>
<path d="M2095 1449 c-98 -32 -235 -50 -355 -48 -140 3 -162 -3 -179 -52 -27
-77 -1 -172 61 -230 46 -43 143 -88 219 -100 63 -10 162 -5 216 11 39 12 9 12
-62 0 -87 -14 -119 -6 -149 41 -41 62 -76 178 -76 253 l0 66 53 0 c50 0 150
13 187 25 16 5 18 -4 22 -82 5 -102 29 -163 89 -225 36 -38 36 -40 16 -47 -47
-17 -51 -21 -17 -15 52 9 103 38 138 79 45 50 61 85 68 148 9 77 -22 141 -80
168 -44 20 -103 23 -151 8z m145 -18 c56 -30 74 -62 73 -133 0 -35 -7 -79 -16
-99 -19 -47 -89 -119 -114 -119 -27 0 -89 70 -116 129 -16 35 -21 67 -21 131
l-1 85 45 12 c66 17 111 15 150 -6z m-521 -41 l38 0 5 -87 c6 -93 35 -182 79
-245 l23 -31 -45 7 c-107 17 -227 105 -248 182 -24 86 -3 157 51 173 18 5 39
7 46 5 8 -2 31 -4 51 -4z"/>
<path d="M1570 975 c14 -8 30 -14 35 -14 6 0 -1 6 -15 14 -14 8 -29 14 -35 14
-5 0 1 -6 15 -14z"/>
</g>
</svg>
